<svg xmlns="http://www.w3.org/2000/svg" viewBox="0 0 100 100">
  <rect width="100" height="100" rx="20" fill="#122A4E"/>
  <g stroke="#3E7FBF" stroke-width="7" stroke-linecap="round">
    <line x1="20" y1="50" x2="80" y2="50"/>
    <line x1="35" y1="76" x2="65" y2="24"/>
    <line x1="35" y1="24" x2="65" y2="76"/>
  </g>
  <path d="M50,24 C43,35 38,44 38,55 C38,64 43,71 50,71 C57,71 62,64 62,55 C62,44 57,35 50,24 Z" fill="#C41230"/>
  <path d="M50,38 C46,45 43,50 43,57 C43,62 46,66 50,66 C54,66 57,62 57,57 C57,50 54,45 50,38 Z" fill="#F2A33E"/>
</svg>
